<svg version="1.0" xmlns="http://www.w3.org/2000/svg" width="42.667" height="42.667" viewBox="0 0 32 32"><path d="M9 2.3C4.2 4.8 0 11.2 0 16c0 4.8 4.2 11.2 9 13.7 5.4 2.9 8.6 2.9 14 0 4.8-2.5 9-8.9 9-13.7 0-4.8-4.2-11.2-9-13.7-5.4-2.9-8.6-2.9-14 0zm12.3.1c7.3 3 11.2 11.4 8.6 18.3-1.5 3.7-3.9 5.6-3.9 3 0-.8-1.6-2.9-3.4-4.5-3-2.6-3.3-3.2-2-4.2 3.3-2.8 0-10-4.6-10s-7.9 7.2-4.6 10c1.3 1 1 1.6-2 4.2C7.6 20.8 6 22.9 6 23.7c0 2.6-2.4.7-3.9-3C.4 16 1.3 11 4.7 6.9 9.3 1.4 15.2-.2 21.3 2.4zm-2.1 5.3c3.6 3.2 1.7 8.3-3.2 8.3-4.8 0-6.7-4.5-3.3-8.2 2-2.2 4.1-2.3 6.5-.1zm.3 10.7c4.1 1.8 7.2 7 5.4 9.2-.6.8-2.9 1.9-5 2.6-4.3 1.3-10.7 0-12.9-2.7-1.8-2.1.8-6.6 5-8.7 4.2-2.1 3.3-2.1 7.5-.4z"/><path d="M15.6 23.6c-.9 2-1.4 3.9-1.2 4.2.3.3 1.3-1.2 2.1-3.3 2.1-4.8 1.4-5.6-.9-.9zM11.1 23.4c-.9 1-.7 1.7.6 2.7 1.6 1.2 1.7 1.2.6-.2-1-1.2-1-1.8-.1-2.7.7-.7.9-1.2.6-1.2-.3 0-1.1.6-1.7 1.4zM19.8 23.2c.9.9.9 1.5-.1 2.7-1.1 1.4-1 1.4.6.2 1.3-1 1.5-1.7.6-2.7-.6-.8-1.4-1.4-1.7-1.4-.3 0-.1.5.6 1.2z"/></svg>